<?xml version="1.0" encoding="utf-8"?>
<!-- Generator: Adobe Illustrator 15.0.0, SVG Export Plug-In . SVG Version: 6.00 Build 0)  -->
<!DOCTYPE svg PUBLIC "-//W3C//DTD SVG 1.1//EN" "http://www.w3.org/Graphics/SVG/1.1/DTD/svg11.dtd">
<svg version="1.1" id="图层_1" xmlns="http://www.w3.org/2000/svg" xmlns:xlink="http://www.w3.org/1999/xlink" x="0px" y="0px"
	 width="595.28px" height="841.89px" viewBox="0 0 595.28 841.89" enable-background="new 0 0 595.28 841.89" xml:space="preserve">
<path fill-rule="evenodd" clip-rule="evenodd" d="M409.417,309.527c-5.756,2.227-12.803,3.934-20,2c2.001,27,7.034,59.632,9,90
	c1.059,4.804,7.27,0.581,8,4c0.12,4.453-4.862,3.804-7,6c10.311,54.873,14.16,115.501,26,170c1.402,6.455,6.984,15.015,1,21
	c-9.148,0.184-5.811-7.912-7-14c-10.329-52.872-16.943-120.521-25-178c-30.514,0.677-61.009,11.398-88,9
	c-0.239,5.296,4.468,10.361,0,14c49.418,9.004,50.447,102.478,12,125c11.145,13.614,19.682,31.463,30,47c3.1,4.668,8.51,9.186,8,15
	c-6.895,2.701-10.486-6.621-13-11c-8.715-15.186-18.837-33.261-27-49c-7.022,4.978-14.888,9.111-23,13
	c-6.975,15.795-15.829,31.215-24,46c-2.305,4.17-3.206,13.222-10,13c-4.478-4.841,2.409-10.404,5-14
	c8.816-12.236,16.357-28.287,23-43c-69.329,17.061-125.622-14.475-121-79c2.58-36.012,20.724-52.056,50-64
	c13.441-5.484,28.382-11.486,42-12c5.426-0.205,11.75,3.04,18,2c10.988-1.829,11.827-17.631,22-15c-0.333,4.29-8.071,11.505-14,16
	c5.65,2.35,7.483,8.518,16,8c-0.426-13.967,2.047-36.693-1-55c-16.407,2.75-27.526-10.034-43-6c-18.873-46.787,1.335-97.238,59-89
	c21.142,3.02,38.292,24.795,32,52c-4.025,2.974-6.342,7.659-12,9c-3.684-0.982-4.075-5.258-8-6c3.84-24.275-40.31-32.818-44-13
	c-2.533,13.604,12.815,21.881,7,38c-1.096,4.571-6.362,4.971-11,6c17.713,9.99,50.534,1.572,50-24c7.617,19.182-12.376,27.454-26,32
	c2.073,11.754,5.155,27.292,4,39c28.739-3.928,58.031-7.302,86-12c-1.741-31.592-5.201-61.466-9-91c-8.157-3.73-18.91,1.156-25-4
	c-0.774-5.441,4.518-4.815,8-6c1.154-16.678,10.184-32.178,6-48c2.881-0.119,6.547,0.546,8-1c4.918-0.528,0.725,5.43,1,7
	c1.109,6.328,10.496,16.897,15,25C402.449,293.58,408.31,301.408,409.417,309.527z M373.417,302.527c7.533,1.534,10.197-1.802,14-4
	c-0.409,2.409,1.826,2.174,1,5c3.695-0.638,9.961,1.295,12-1c-7.471-11.53-11.82-26.18-21-36
	C377.604,278.11,373.229,292.255,373.417,302.527z M336.417,301.527c-24.601-23.208-74.227-11.839-80,22
	c-2.127,12.471,2.427,27.989,4,42c8.854-1.813,19.46-1.873,26-6c2.122-17.034-10.41-22.028-8-37c4.051-25.167,55.82-18,53,12
	c3.814-0.852,6.36-2.973,10-4C345.294,319.005,340.347,310.408,336.417,301.527z M264.417,427.527c-27.42,2.344-51.667,7.902-71,23
	c-18.309,14.298-29.374,53.87-17,83c18.578,43.738,102.269,51.214,140,19c22.301-19.04,29.831-70.571,11-96
	c-12.782-17.26-36.022-18.613-60-24c-4.747-3.068,5.078-4.907,0-5C266.417,427.527,265.417,427.527,264.417,427.527z"/>
<path fill-rule="evenodd" clip-rule="evenodd" d="M272.417,488.527c0.708,19.237-10.792,33.505-26,34
	c-22.824,0.743-29.853-31.778-10-41C247.03,476.598,265.449,477.873,272.417,488.527z M253.417,487.527
	c-10.601-7.574-25.981,3.275-22,20c11.858,17.179,45.019-1.861,32-21C259.16,485.937,256.803,487.246,253.417,487.527z"/>
</svg>
