<?xml version="1.0" encoding="utf-8"?>
<!-- Generator: Adobe Illustrator 15.0.0, SVG Export Plug-In . SVG Version: 6.00 Build 0)  -->
<!DOCTYPE svg PUBLIC "-//W3C//DTD SVG 1.1//EN" "http://www.w3.org/Graphics/SVG/1.1/DTD/svg11.dtd">
<svg version="1.1" id="图层_1" xmlns="http://www.w3.org/2000/svg" xmlns:xlink="http://www.w3.org/1999/xlink" x="0px" y="0px"
	 width="841.89px" height="595.28px" viewBox="0 0 841.89 595.28" enable-background="new 0 0 841.89 595.28" xml:space="preserve">
<circle fill="#FAEE00" cx="289" cy="249.875" r="1.5"/>
<circle fill="#FAEE00" cx="289" cy="260.375" r="1.5"/>
<circle fill="#FAEE00" cx="288.375" cy="272.125" r="1.5"/>
<circle fill="#FAEE00" cx="288.375" cy="283.25" r="1.5"/>
<circle fill="#FAEE00" cx="288.375" cy="296.125" r="1.5"/>
<circle fill="#FAEE00" cx="287.5" cy="307.125" r="1.5"/>
<circle fill="#FAEE00" cx="286.875" cy="318.625" r="1.5"/>
<circle fill="#FAEE00" cx="342.375" cy="250.375" r="1.5"/>
<circle fill="#FAEE00" cx="340.875" cy="260.875" r="1.5"/>
<circle fill="#FAEE00" cx="341" cy="272.625" r="1.5"/>
<circle fill="#FAEE00" cx="340.25" cy="284" r="1.5"/>
<circle fill="#FAEE00" cx="340.25" cy="295.125" r="1.5"/>
<circle fill="#FAEE00" cx="340.25" cy="307.125" r="1.5"/>
<circle fill="#FAEE00" cx="340.875" cy="318.625" r="1.5"/>
<circle fill="#FAEE00" cx="295.25" cy="289.875" r="1.5"/>
<circle fill="#FAEE00" cx="305" cy="288.375" r="1.5"/>
<circle fill="#FAEE00" cx="316.375" cy="286.25" r="1.5"/>
<circle fill="#FAEE00" cx="328.375" cy="284.75" r="1.5"/>
<circle fill="#FAEE00" cx="392.625" cy="278.75" r="1.5"/>
<circle fill="#FAEE00" cx="391.125" cy="289.875" r="1.5"/>
<circle fill="#FAEE00" cx="391.125" cy="301" r="1.5"/>
<circle fill="#FAEE00" cx="396.5" cy="319.92" r="1.5"/>
<circle fill="#FAEE00" cx="392.625" cy="312" r="1.5"/>
<circle fill="#FAEE00" cx="384" cy="275.125" r="1.5"/>
<circle fill="#FAEE00" cx="374.25" cy="276.125" r="1.5"/>
<circle fill="#FAEE00" cx="366.125" cy="281.75" r="1.5"/>
<circle fill="#FAEE00" cx="361" cy="289.25" r="1.5"/>
<circle fill="#FAEE00" cx="358.875" cy="298.125" r="1.5"/>
<circle fill="#FAEE00" cx="360.375" cy="308.625" r="1.5"/>
<circle fill="#FAEE00" cx="365.25" cy="316.875" r="1.5"/>
<circle fill="#FAEE00" cx="374.5" cy="319.875" r="1.5"/>
<circle fill="#FAEE00" cx="384" cy="317.5" r="1.5"/>
<circle fill="#FAEE00" cx="414.25" cy="272.625" r="1.5"/>
<circle fill="#FAEE00" cx="414.25" cy="282.5" r="1.5"/>
<circle fill="#FAEE00" cx="415.125" cy="302.5" r="1.5"/>
<circle fill="#FAEE00" cx="415.125" cy="313.5" r="1.5"/>
<circle fill="#FAEE00" cx="415.125" cy="324.5" r="1.5"/>
<circle fill="#FAEE00" cx="415.125" cy="334.937" r="1.5"/>
<circle fill="#FAEE00" cx="415.125" cy="344.5" r="1.5"/>
<circle fill="#FAEE00" cx="415.125" cy="292.25" r="1.5"/>
<circle fill="#FAEE00" cx="423.125" cy="279.125" r="1.5"/>
<circle fill="#FAEE00" cx="432.75" cy="276.333" r="1.5"/>
<circle fill="#FAEE00" cx="442.375" cy="278.75" r="1.5"/>
<circle fill="#FAEE00" cx="446.875" cy="286.875" r="1.5"/>
<circle fill="#FAEE00" cx="447.75" cy="297.375" r="1.5"/>
<circle fill="#FAEE00" cx="446.25" cy="308.25" r="1.5"/>
<circle fill="#FAEE00" cx="440.875" cy="315.875" r="1.5"/>
<circle fill="#FAEE00" cx="432" cy="318.42" r="1.5"/>
<circle fill="#FAEE00" cx="422.625" cy="316.5" r="1.5"/>
<circle fill="#FAEE00" cx="467.125" cy="273.063" r="1.5"/>
<circle fill="#FAEE00" cx="467.125" cy="282.938" r="1.5"/>
<circle fill="#FAEE00" cx="468" cy="302.938" r="1.5"/>
<circle fill="#FAEE00" cx="468" cy="313.938" r="1.5"/>
<circle fill="#FAEE00" cx="468" cy="324.938" r="1.5"/>
<circle fill="#FAEE00" cx="468" cy="335.374" r="1.5"/>
<circle fill="#FAEE00" cx="468" cy="344.938" r="1.5"/>
<circle fill="#FAEE00" cx="468" cy="292.688" r="1.5"/>
<circle fill="#FAEE00" cx="476" cy="279.563" r="1.5"/>
<circle fill="#FAEE00" cx="485.625" cy="276.771" r="1.5"/>
<circle fill="#FAEE00" cx="495.25" cy="279.188" r="1.5"/>
<circle fill="#FAEE00" cx="499.75" cy="287.313" r="1.5"/>
<circle fill="#FAEE00" cx="500.625" cy="297.813" r="1.5"/>
<circle fill="#FAEE00" cx="499.125" cy="308.688" r="1.5"/>
<circle fill="#FAEE00" cx="493.75" cy="316.313" r="1.5"/>
<circle fill="#FAEE00" cx="484.875" cy="318.857" r="1.5"/>
<circle fill="#FAEE00" cx="475.5" cy="316.938" r="1.5"/>
<circle fill="#FAEE00" cx="514.155" cy="275.271" r="1.5"/>
<circle fill="#FAEE00" cx="518.875" cy="282.938" r="1.5"/>
<circle fill="#FAEE00" cx="523.5" cy="291.188" r="1.5"/>
<circle fill="#FAEE00" cx="527.75" cy="299.313" r="1.5"/>
<circle fill="#FAEE00" cx="531.75" cy="308.25" r="1.5"/>
<circle fill="#FAEE00" cx="555.125" cy="275.271" r="1.5"/>
<circle fill="#FAEE00" cx="551.375" cy="283" r="1.5"/>
<circle fill="#FAEE00" cx="547.625" cy="291.188" r="1.5"/>
<circle fill="#FAEE00" cx="544.03" cy="299.5" r="1.5"/>
<circle fill="#FAEE00" cx="540.25" cy="308.25" r="1.5"/>
<circle fill="#FAEE00" cx="535.25" cy="316.92" r="1.5"/>
<circle fill="#FAEE00" cx="531.25" cy="326.438" r="1.5"/>
<circle fill="#FAEE00" cx="527.75" cy="335.374" r="1.5"/>
<circle fill="#FAEE00" cx="524.75" cy="344.938" r="1.5"/>
</svg>
