<?xml version="1.0" encoding="utf-8"?>
<!-- Generator: Adobe Illustrator 15.0.0, SVG Export Plug-In . SVG Version: 6.00 Build 0)  -->
<!DOCTYPE svg PUBLIC "-//W3C//DTD SVG 1.1//EN" "http://www.w3.org/Graphics/SVG/1.1/DTD/svg11.dtd">
<svg version="1.1" id="图层_1" xmlns="http://www.w3.org/2000/svg" xmlns:xlink="http://www.w3.org/1999/xlink" x="0px" y="0px"
	 width="841.89px" height="595.28px" viewBox="0 0 841.89 595.28" enable-background="new 0 0 841.89 595.28" xml:space="preserve">
<path fill-rule="evenodd" clip-rule="evenodd" fill="#FFFFFF" d="M471,335c-1.647,1.471-14.999-3.18-3-2
	C468.733,333.934,469.818,334.515,471,335z"/>
<path fill-rule="evenodd" clip-rule="evenodd" fill="#FFFFFF" d="M383,337c8.667,0,17.333,0,26,0c-8.094,3.572-16.332,7.001-24,11
	C385.321,343.346,383.006,341.327,383,337z"/>
<path fill-rule="evenodd" clip-rule="evenodd" fill="#FFFFFF" d="M428,337c-4.822,2.511-10.869,3.798-17,5
	C413.325,336.991,419.988,336.322,428,337z"/>
<path fill-rule="evenodd" clip-rule="evenodd" fill="#FFFFFF" d="M309,345c1.733-1.707,2.62,0.158,6-1c1.715,3.618,4.337,6.329,7,9
	C317.026,354.949,312.636,347.716,309,345z"/>
<path fill-rule="evenodd" clip-rule="evenodd" fill="#FFFFFF" d="M314,416c1.518,10.815,16.226,8.441,21,16
	c-3.146-0.479-3.909,1.424-6,2c-6.29-3.377-10.434-8.899-16-13C312.174,418.174,314.409,418.409,314,416z"/>
<path fill-rule="evenodd" clip-rule="evenodd" fill="#FFFFFF" d="M557,431c-10.209,2.865-20.346-2.979-31-3
	c3.52-3.48,8.598-5.402,12-9C544.431,422.903,550.235,427.432,557,431z"/>
<path fill-rule="evenodd" clip-rule="evenodd" fill="#FFFFFF" d="M363,455c2.398,2.142-5.194,2.749-6,5
	c14.498,11.836,27.319,25.348,49,30c-11.104,4.475-29.551-11.173-39-18c-11.522-8.325-21.674-16.898-29-24
	C344.221,448.548,351.82,462.069,363,455z"/>
<path fill-rule="evenodd" clip-rule="evenodd" fill="#FFFFFF" d="M433,477c-6.865,4.801-15.673,7.66-23,12
	C413.464,484.787,425.123,480.13,433,477z"/>
<path fill-rule="evenodd" clip-rule="evenodd" d="M586.098,45.389c7.813,2.252,17.982,15.97,24.116,26.413
	c5.789,9.856,14.147,23.749,13.78,32.155c-0.399,9.148-12.009,22.454-16.077,33.303c-5.132,13.687-7.105,25.235-9.188,39.045
	c13.155-5.255,30.942-21.836,51.678-19.522c-17.841,10.486-35.276,21.378-45.936,39.045c14.654,29.807,27.988,60.64,22.968,101.058
	c-2.946,23.711-13.295,44.527-22.968,68.904c-13.976,35.219-24.313,59.22-50.529,76.941c5.409,9.902,18.33,12.294,28.71,17.226
	c-13.23,10.208-31.307-1.462-45.936-1.148c-11.844,0.254-26.657,11.471-34.451-1.147c4.281-13.712,15.163-20.819,26.412-27.562
	c-4.278,9.501-14.339,13.222-17.226,24.116c20.738,4.414,40.627-15.99,55.123-34.452c14.242-18.139,27.309-40.932,29.857-63.161
	c0.964-8.399,0.238-15.463-4.593-19.522c-27-7.191-58.17,11.975-63.162,43.639c-4.048-0.545-3.774-5.412-4.593-9.188
	c-11.698,2.847-19.662,9.432-27.562,16.078c-1.068,19.601-3.954,37.388-16.077,45.936c4.316-23.603,6.678-46.456,0-70.052
	c22.912,2.463,45.648-3.724,50.528-22.968c-13.405-16.836-31.372-29.111-49.38-41.342c7.212,11.928,17.922,20.356,22.968,34.451
	c-17.32-10.241-30.928-24.197-48.232-34.451c9.418,13.168,29.434,25.686,39.045,42.49c-19.101-7.313-32.687-20.14-53.975-25.265
	c0.753,5.388,11.691,10.497,12.633,19.522c-21.499-14.485-42.707-29.259-66.606-41.342c10.068,13.689,37.999,25.514,44.787,42.491
	c-24.595-8.709-47.794-18.813-74.646-25.265c2.162,9.321,6.219,16.748,8.039,26.413c17.316,2.2,39.923,1.292,62.013,2.297
	c23.086,1.047,48.469-2.454,51.678,17.226c-10.712-4.601-20.806-9.819-37.897-8.039c14.589,4.935,29.45,9.596,33.304,25.265
	c-10.733-6.493-17.737-16.714-36.748-14.929c0.296,5.063,3.523,7.193,2.296,13.78c-5.355-2.913-30.154-15.904-27.561,6.891
	c-4.188,0.617-10.203-4.094-10.335,2.297c0.718,7.095,6.525,0.996,10.335,1.148c5.366,12.348,22.72,5.206,24.117-5.742
	c8.407,16.573-4.888,37.843-27.562,34.452c5.93,6.3,16.309,7.393,25.265,5.741c11.783-2.173,16.934-14.069,24.116-18.374
	c-3.94,19.251-20.174,27.577-40.194,25.265c-24.429-2.821-33.835-29.854-40.194-49.381c-11.496,8.942,3.03,27.171,3.445,39.045
	c-17.972-13.801-27.216-36.328-35.6-59.716c-5.332-1.121-1.559,6.863-6.89,5.742c3.306-25.187-12.976-39.24-26.413-53.975
	c8.575,43.103,32.241,71.113,55.123,99.91c-6.567,0.825-10.259-1.225-16.077-1.148c15.3,36.641,73.993,49.071,120.581,36.748
	c-10.694,8.27-26.186,12.458-41.342,13.781c-50.152,4.373-77.735-31.384-98.761-58.568c-5.134,5.341-7.232,19.372-14.929,18.374
	c10.158-20.32-2.892-42.146-21.819-40.193c2.305,9.179,5.693,17.273,14.929,19.522c0.41,12.538-4.928,22.488-12.632,21.819
	c-12.775-1.107-11.726-29.759-16.078-41.342c-3.775,6.877,1.31,20.853-1.148,26.413c-8.644-12.026-10.999-30.345-21.819-40.193
	c-1.623,7,6.607,14.048,8.039,21.819c-3.613,0.574-4.489-2.503-6.89,0c7.148,19.646,10.201,43.39,39.045,41.342
	c-0.145,7.512-2.396,12.915-4.594,18.374c7.796,6.749,19.967,9.127,28.709,14.929c-2.083,3.277-7.016,3.701-11.484,4.594
	c5.241,9.688,14.64,15.219,22.968,21.819c10.974-0.511,17.912-5.056,27.562-6.89c-1.641,9.077-11.462,9.974-17.226,14.929
	c5.676,6.358,13.568,10.636,21.82,16.077c6.667,4.396,15.517,13.294,22.967,13.781c11.302,0.737,38.556-17.858,48.233-22.968
	c17.387-9.183,33.201-18.7,47.083-24.116c-17.297,18.993-41.875,31.502-68.903,44.787c-9.113,4.479-18.427,11.75-26.413,11.483
	c-14.569-0.486-35.882-20.498-48.232-29.857c-7.763-5.884-15.813-11.502-21.819-17.227c-13.074-12.459-20.848-27.102-35.6-37.896
	c-0.136-6.644,5.036-7.98,5.742-13.78c-26.102-3.471-29.013-30.576-39.045-51.678c-9.71-20.429-30.657-37.751-32.155-58.567
	c-13.551,19.103-14.481,49.813-17.226,76.941c-13.329-23.573-11.014-73.968-3.445-102.207
	c-26.649,14.705-43.757,48.87-57.419,80.388c-3.38-2.501-4.107-7.35-4.594-10.335c-10.656-65.315,26.01-113.256,63.162-137.808
	c-31.706,5.043-56.533,16.964-82.684,27.562c24.165-33.78,72.189-55.47,130.916-47.084
	c44.725-54.612,112.854-111.26,217.045-103.355c47.981,3.641,78.42,26.151,110.245,48.232
	C576.061,120.801,576.488,75.809,586.098,45.389z M627.439,164.821c-12.349,5.26-21.467,13.75-33.303,19.522
	c2.306-33.294,13.942-57.257,26.412-80.387c-8.525-20.184-16.035-41.384-33.303-52.826c-7.655,32.953-6.921,77.7-10.336,111.394
	c-38.328-30.287-81.376-56.621-149.29-51.677c-82.444,6.001-140.286,55.187-179.148,103.355
	c-50.234-8.442-93.275,8.985-118.284,33.303c23.572-8.25,52.469-23.258,80.387-19.522c-43.637,24.09-81.404,71.225-68.903,140.104
	c14.209-31.727,30.251-61.621,60.864-76.943c-6.091,24.21-10.875,62.637-3.445,89.575c3.874-24.071,6.735-49.154,18.374-65.458
	c10.857,28.57,28.021,50.834,41.342,76.941c-1.977-5.67-3.652-12.524,1.148-16.077c-2.503-6.316-9.785-13.929-6.89-21.819
	c13.553,4.438,16.152,19.83,24.116,29.858c0.938-5.188-2.213-14.463,2.296-16.077c11.668,10.148,7.005,36.631,18.375,47.083
	c6.424-1.998,8.382-8.46,9.187-16.077c-9.058-3.674-15.782-15.472-13.781-26.413c-8.262-5.9-16.228-12.098-18.374-24.116
	c-0.456-2.752,5.23,0.638,3.445-3.444c-3.38-7.351-8.357-19.191-5.742-28.71c13.839,26.735,25.114,56.038,50.529,71.2
	c2.043,3.314-0.225,10.943,3.445,12.632c1.122-2.707,0.371-7.285,4.594-6.891c24.39,23.078,40.885,60.172,87.277,57.42
	c-36-3.896-63.195-24.599-72.349-50.529c4.36,1.382,9.039,2.442,13.781,3.445c-9.436-13.444-22.236-29.189-32.155-47.084
	c-9.618-17.354-19.644-38.011-18.374-58.568c12.847,15.208,34.631,32.062,33.303,53.975c0.295-2.689,5.045-0.661,5.742,0
	c6.074,18.808,13.933,35.831,25.265,49.381c-2.743-11.013-7.347-28.214,5.742-31.007c6.343,14.331,11.314,36.147,22.968,41.343
	c-1.642-1.582-5.719-5.725-1.148-6.891c13.056,9.857,34.729,2.231,34.452-14.929c-8.767,9.014-22.724-1.209-35.601-1.148
	c-0.965-2.862-1.502-6.152-1.148-10.336c2.748-1.846,5.408-3.779,10.335-3.445c-0.471-14.13,19.951-13.479,27.562-6.89
	c-0.162-5.197-5.109-5.61-4.594-11.484c4.713,0.119,9.375,0.188,11.483-2.297c-26.962-2.844-44.826,9.526-60.864,13.781
	c-3.658-4.554,9.631-6.821,6.89-10.336c-7.736,2.6-12.104,8.565-20.671,10.336c-0.115-7.783-5.262-14.535-3.445-20.671
	c18.142-0.916,46.299,1.213,63.161,0c0.924-0.067,14.789-1.438,10.335-2.297c-24.462-2.717-54.01-0.348-76.941-4.594
	c-0.363-13.126-9.822-22.977-9.187-33.304c24.894,4.199,44.121,14.063,66.606,20.671c-16.137-19.464-41.003-30.197-58.568-48.232
	c30.737,8.692,55.126,29.854,79.238,41.343c-3.426-3.73-11.599-7.942-10.335-12.633c19.871,3.865,36.799,16.789,51.678,21.819
	c-11.669-13.439-27.264-25.575-40.194-36.749c-4.025-3.479-10.798-8.172-10.335-13.781c22.563,10.74,42.929,29.8,62.013,40.194
	c-7.279-11.865-22.406-21.994-26.413-33.304c25.941,14.252,49.708,30.68,67.755,52.827c-2.479,6.709-6.069,12.305-8.038,19.522
	c-13.828,3.817-27.778,9.56-41.343,10.335c4.594,14.252,2.658,35.905,2.297,49.381c3.475-9.157,6.138-19.128,5.742-32.154
	c7.944-9.281,19.221-15.232,32.155-19.522c3.171-0.491,1.077,4.281,3.444,4.593c8.463-25.607,25.904-42.234,64.311-37.896
	c0.253,0.896,0.961,1.335,2.296,1.148c8.607,10.609,2.946,35.724-2.296,49.381c-7.819,20.366-26.246,37.39-32.155,49.381
	c14.222-15.252,29.024-32.15,36.748-56.271c6.019-18.794,12.765-31.066,18.375-47.084c16.106-45.996,7.704-99.575-14.93-134.362
	C605.921,182.343,620.9,172.834,627.439,164.821z M466.665,346.268c-13.779-1.355,1.554,3.985,3.445,2.296
	C468.754,348.006,467.508,347.339,466.665,346.268z M371.349,363.493c8.806-4.594,18.267-8.53,27.562-12.633
	c-9.952,0-19.906,0-29.858,0C369.059,355.829,371.718,358.148,371.349,363.493z M401.207,356.603
	c7.041-1.382,13.985-2.859,19.523-5.742C411.529,350.082,403.876,350.85,401.207,356.603z M299.001,369.234
	c-3.058-3.067-6.069-6.181-8.039-10.335c-3.881,1.33-4.899-0.812-6.89,1.148C288.247,363.165,293.289,371.474,299.001,369.234z
	 M288.665,447.325c6.392,4.708,11.151,11.051,18.375,14.929c2.401-0.661,3.277-2.849,6.89-2.297
	c-5.483-8.68-22.373-5.955-24.116-18.374C290.284,444.349,287.716,444.08,288.665,447.325z M547.053,445.028
	c-3.907,4.132-9.739,6.339-13.781,10.336c12.235,0.022,23.876,6.735,35.601,3.444C561.104,454.711,554.438,449.51,547.053,445.028z
	 M317.375,478.332c8.413,8.155,20.071,17.999,33.303,27.561c10.851,7.84,32.036,25.81,44.787,20.671
	c-24.898-5.343-39.622-20.859-56.271-34.451c0.926-2.586,9.645-3.284,6.89-5.742C333.246,494.487,324.519,478.96,317.375,478.332z
	 M400.059,525.416c8.415-4.984,18.529-8.268,26.413-13.781C417.426,515.229,404.037,520.577,400.059,525.416z"/>
</svg>
