<?xml version="1.0" encoding="utf-8"?>
<!-- Generator: Adobe Illustrator 15.0.0, SVG Export Plug-In . SVG Version: 6.00 Build 0)  -->
<!DOCTYPE svg PUBLIC "-//W3C//DTD SVG 1.1//EN" "http://www.w3.org/Graphics/SVG/1.1/DTD/svg11.dtd">
<svg version="1.1" id="图层_1" xmlns="http://www.w3.org/2000/svg" xmlns:xlink="http://www.w3.org/1999/xlink" x="0px" y="0px"
	 width="841.89px" height="595.28px" viewBox="0 0 841.89 595.28" enable-background="new 0 0 841.89 595.28" xml:space="preserve">
<path fill-rule="evenodd" clip-rule="evenodd" d="M571.138,125.374c11.203,11.178,26.496,19.801,27.904,39.586
	c1.057,14.847-3.495,33.867-4.542,51.917c-0.821,14.148-1.357,28.874-2.596,42.182c1.11,1.484,4.953,0.238,7.138,0.648
	c33.237,22.705,13.081,81.947,0.649,112.917c-12.363,30.8-43.627,55.663-71.385,67.491c31.912-24.213,67.946-55.211,75.928-107.077
	c3.927-25.521,8.075-59.864-19.469-61.649c-6.842,10.247-11.898,22.279-20.767,30.5c4.786,12.304,9.991,24.186,9.734,41.533
	c-15.419,18.975-26.661,42.127-37.639,65.543c0.426-7.576,2.776-13.23,3.244-20.766c-2.563-0.385-4.565,5.372-7.787,6.489
	c6.79-13.12,15.729-24.265,24.66-37.64c2.982-4.466,8.468-10.128,9.085-14.926c1.516-11.781-2.305-22.822-5.191-31.798
	c-1.302-4.05-4.102-9.108-3.894-12.33c0.229-3.552,5.088-7.425,7.787-12.33c4.017-7.3,6.36-15.836,3.245-24.66
	c-8.24-1.771-15.565-7.644-24.012-5.841c-7.356,1.572-15.866,14.367-24.66,15.574c17.374,2.961,28.357,12.313,35.044,25.959
	c-9.902-8.267-21.286-18.593-38.938-17.521c-9.706,0.589-16.731,4.865-25.958,6.489c15.614,10.408-9.681,29.122-12.979,9.734
	c2.599,0.358,4.353,2.278,7.139,0.648c0.991-1.183,0.991-5.307,0-6.489c-14.459,3.713-24.822,11.519-35.692,18.819
	c21.85,13.561,62.366,21.793,88.257,6.489c-2.891,4.747-9.607,8.433-14.926,10.384c-19.956,7.32-44.551,1.217-62.948-5.191
	c-2.964-1.033-5.254-3.522-8.436-3.894c-7.507-0.876-14.971,3.756-20.118-1.299c0.581-6.205-0.9-10.348-1.947-14.926
	c19.046-13.02,44.74-18.581,70.087-30.5c6.304-2.965,14.528-7.725,22.064-11.682c6.104-3.204,16.031-11.777,20.767-12.33
	c9.535-1.113,22.405,9.438,31.149,10.384c-0.149-3.312-1.818-5.104-3.245-7.139c0.092-1.856,2.707-1.187,4.543-1.298
	c-0.844-4.348-4.063-6.32-5.191-10.383c2.363-0.201,4.223,0.104,5.84,0.648c-1.155-6.199-4.512-10.198-6.489-15.574
	c2.962-0.15,4.532,1.092,6.489,1.946c-0.868-6.054-5.142-8.701-7.138-13.628c3.274-0.463,4.738,0.887,7.138,1.298
	c-0.981-5.724-5.572-7.838-7.787-12.33c2.358-1.553,4.854,1.368,7.787,1.298c-1.734-6.053-6.853-8.723-9.085-14.277
	c2.406,0.461,2.785-1.107,5.191-0.648c-0.076-4.25-4.603-4.049-5.191-7.787c1.6,0.085,3.127,0.098,3.894-0.649
	c-2.112-4.161-5.656-6.89-9.085-9.734c-0.252-2.631,4.044-0.715,5.841-1.298c-1.601-4.457-6.386-5.729-8.437-9.734
	c1.403-1.463,2.214,0.537,4.542,0c-2.813-3.46-6.519-6.027-10.383-8.436c0.228-2.152,3.74-1.019,5.841-1.298
	c-6.954-11.694-19.872-5.245-27.257,1.298c-0.507-2.888,0.865-3.895,0.649-6.49c-7.609,1.479-14.003,9.79-20.766,14.277
	c-0.011-2.823-0.215-5.839,0.648-7.787c-8.777,0.308-10.074,8.097-16.873,10.383c-0.318-2.914,0.329-4.862,0.649-7.138
	c-7.933,2.883-13.151,8.48-18.171,14.277c-2.28-0.531-1.745-3.879-1.946-6.49c-6.908,3.042-10.92,8.981-16.873,12.979
	c-1.703-1.894,0.577-3.738,0-6.489c-6.971,3.196-11.475,8.859-17.521,12.979c-0.672-1.708-0.776-3.982-0.649-6.49
	c-8.429,2.819-11.7,10.795-18.171,15.575c0-2.596,0-5.192,0-7.788c-12.792,16.625-2.827,50.172-1.297,69.438
	c-9.012-14.352-13.788-32.938-16.873-53.215c-6.692,21.511-3.539,51.744,1.298,72.683c-15.399-19.446-22.822-55.442-16.224-88.906
	c-4.409-2.946-8.309-6.401-12.33-9.734c0.29,2.886-0.461,4.73-1.298,6.49c-4.275-4.161-7.491-9.382-12.979-12.33
	c-1.987,1.407,0.623,3.652,0,5.84c-5.604-1.102-7.785-5.626-11.681-8.436c-1.982,1.199,0.749,3.083,0,5.191
	c-5.73-2.921-10.174-7.131-13.628-12.33c-2.464,0.564-0.558,5.499-1.947,7.139c-4.261-3.094-6.429-8.281-11.032-11.032
	c-1.369,1.659-1.014,5.043-2.595,6.489c-5.249-4.053-6.851-11.752-12.979-14.926c-1.386,1.427-0.761,4.863-2.596,5.841
	c-5.589-4.578-9.117-11.217-16.224-14.277c-2.116,1.805,0.798,6.543-0.649,7.787c-5.104-2.807-5.172,0.382-10.383-0.649
	c-1.464,0.483-0.254,3.64-0.649,5.191c-2.089,0.143-2.747-1.147-5.192-0.649c-0.468,3.064,4.05,1.141,3.245,4.543
	c-3.737-0.06-7.04,0.315-9.085,1.947c1.115,2.346,6.506,0.416,6.49,3.894c-8.083,2.466-18.165,5.647-20.767,14.277
	c-1.149,3.813-0.947,11.649-1.947,18.82c-2.499,17.926-4.259,41.368-3.245,63.597c6.492-1.907,12.443-3.553,18.819-5.84
	c5.182-1.859,13.008-6.224,18.17-5.842c2.422,0.18,9.388,4.83,12.979,7.139c27.282,17.543,60.308,36.122,90.204,48.672
	c6.086,9.272,13.183,17.534,19.469,26.606c-0.452,33.727-0.659,67.695-1.298,101.236c8.605,3.075,22.123,1.239,31.149,3.894
	c-4.426,5.31-11.696,7.772-16.224,12.979c22.107,4.933,47.255,6.824,68.14,12.979c-0.396,6.526,0.814,14.658-0.649,20.117
	c-11.417-0.524-21.954-4.438-33.096-3.894c-10.559,0.516-21.28,4.986-32.447,6.489c-16.579,2.232-32.475,4.555-50.619,3.895
	c-2.352-0.085-7.122,1.572-8.436-1.947c27.695-1.725,53.332-5.506,75.277-12.979c-3.254-1.505-9.295-0.223-13.627-0.648
	c-1.632-5.507-4.98-9.297-7.139-14.277c-9.773,1.555-14.174-2.266-18.82-5.84c-5.195,3.457-7.695,9.609-11.031,14.926
	c-20.447,6.592-38.972,15.106-59.055,22.064c0.613-6.359,4.658-14.774,6.489-22.064c17.73-8.228,36.317-15.599,56.458-21.416
	c-2.874-7.725-7.311-13.889-10.383-21.415c2.57-21.946,9.039-48.178,12.33-70.735c1.025-7.023,3.951-16.598,3.244-21.415
	c-1.095-7.477-10.584-11.761-12.979-18.171c-9.552,0.034-14.59-4.447-22.064-6.489c1.954,4.54,8.174,10.428,9.734,17.521
	c-12.269,1.318-25.27,0.954-36.99,3.245c-6.979,1.363-11.564,4.901-21.415,3.894c-18.191-1.861-31.65-15.913-41.533-27.256
	c14.438,8.37,27.477,24.055,49.969,21.414c11.521-1.352,23.714-7.513,37.639-6.488c-3.967-7.931-10.27-13.525-16.873-18.819
	c0.534,9.896-15.602,13.758-17.521,3.244c4.982,3.603,11.541-6.92,2.596-7.787c0.162-2.002,2.336-1.99,3.245-3.245
	c-10.29-4.138-20.031-12.195-32.448-12.979c-15.151-0.956-23.904,10.343-35.043,15.574c8.333-12.737,19.108-24.713,39.585-23.362
	c-7.108-4.355-13.936-8.992-20.117-14.276c-12.013,3.13-23.537,6.747-35.692,9.734c1.555,14.235,6.772,24.81,12.33,35.043
	c-2.425,12.481-9.869,24.903-8.437,37.64c0.582,5.172,5.35,12.368,8.437,18.17c8.677,16.311,20.393,34.64,27.905,49.97
	c-4.159-1.899-5.97-6.146-9.734-8.437c8.616,33.831,17.096,67.107,35.692,92.15c19.765,26.617,44.139,50.662,67.491,72.034
	c24.771,2.291,51.822,2.362,76.575,0c8.8-13.553,18.741-26.793,27.257-40.885c14.834-24.547,26.936-50.927,42.182-75.278
	c-16.191,46.54-37.697,87.768-66.193,122.003c-18.107,1.723-39.854,3.438-58.405,1.947c-8.482-0.683-22.067,0.551-28.554-1.947
	c-2.202-0.848-7.651-7.347-10.383-10.383c-9.221-10.248-19.198-22.731-27.905-32.448c-6.486-7.238-13.041-13.996-19.468-21.415
	c-5.706-6.584-14.775-14.295-18.82-21.415c-5.343-9.404-9.439-25.212-12.979-36.342c-4.033-12.681-8.242-25.888-11.032-37.639
	c-1.771-7.458-2.739-13.357-5.192-19.469c-6.437-16.035-17.909-31.915-25.958-47.373c-4.563-14.778,9.228-26.432,5.192-38.937
	c-3.453-10.699-19.63-35.837-29.852-18.819c-7.311,12.171-3.815,33.766-0.649,49.319c8.146,40.021,33.854,76.238,55.161,96.694
	c-31.625-20.479-63.976-65.909-67.491-117.46c-1.592-23.353,1.07-47.593,24.011-47.374c-5.127-23.227-11.567-44.66-16.224-68.788
	c-1.47-7.615-4.454-15.834-4.542-23.363c-0.107-9.082,3.663-22.71,6.489-33.096c5.355-19.681,10.957-37.017,17.522-53.863
	c2.255-5.789,2.603-11.002,5.84-14.926c14.139-17.138,38.131-26.708,62.299-36.99c24.459-10.406,51.689-17.952,78.523-20.767
	c31.642-3.318,55.432,7.36,82.416,13.628c41.83,9.717,85.384,20.039,120.056,35.692C589.482,78.649,581.87,110.53,571.138,125.374z
	 M209.673,301.239c-0.193-15.302,3.228-30.724,18.819-29.202c7.424,7.479,19.286,17.134,19.469,29.202
	c0.032,2.104-1.387,4.234-1.947,6.49c-1.607,6.472-4.034,14.93-4.543,21.415c-0.712,9.089,3.454,11.629,7.139,18.171
	c2.478,4.4,4.425,9.255,6.49,12.979c4.884,8.812,11.446,17.213,14.276,25.31c3.452,9.874,4.032,20.659,6.49,30.5
	c1.378,5.519,3.386,11.792,5.191,18.171c1.77,6.254,4.598,14.025,7.139,20.767c2.782,7.382,5.145,15.834,7.787,20.766
	c3.904,7.284,12.775,14.486,18.82,21.416c19.249,22.065,40.082,44.03,57.107,64.895c27.713,2.396,58.633,2.509,86.311,0
	c22.695-29.004,43.888-62.972,56.458-99.938c-17.33,34.154-36.907,66.059-57.756,96.693c-25.155,3.19-53.995,3.093-79.173,0
	c-13.303-12.126-26.77-25.36-39.585-39.585c-12.095-13.426-27.183-28.367-35.692-44.129c-13.739-25.448-21.668-54.063-29.852-86.311
	c3.743-0.753,5.525,6.776,7.138,3.894c-6.872-8.026-9.82-16.331-14.926-25.958c-4.385-8.267-16.295-23.036-17.521-33.096
	c-1.552-12.736,9.433-28,7.788-38.937c-0.465-3.089-3.595-7.055-5.192-11.033c-3.069-7.646-5.848-14.73-6.489-24.011
	c13.143-2.865,24.924-7.09,37.639-10.383c10.037,8.998,22.848,15.223,34.395,22.713c-19.59-10.361-38.87-1.695-48.022,11.032
	c9.631-5.128,17.139-13.436,32.448-11.032c12.654,1.985,26.795,11.13,34.394,16.224c-1.514,0-3.028,0-4.542,0
	c4.274,4.321,1.884,10.713-3.245,12.33c3.13,2.207,9.128,1.375,11.032-1.298c2.244-3.169-1.229-7.777,0-9.734
	c9.111,7.111,18.227,14.221,23.362,25.309c-13.328-2.418-27.3,4.409-38.288,5.841c-15.28,1.991-25.2-3.906-35.043-7.787
	c4.836,1.916,7.773,5.47,11.681,7.139c20.152,8.601,43.225-5.458,68.139-3.245c-1.346-9.066-10.949-13.239-12.33-20.117
	c9.043,2.855,15.418,8.377,27.256,8.437c3.139,5.469,13.811,13.135,14.926,19.468c1.001,5.684-3.524,17.334-5.191,28.554
	c-2.706,18.218-7.729,39.602-9.734,55.81c-1.916,15.478,7.17,19.134,9.734,31.15c-20.586,5.588-39.343,13.005-57.107,21.415
	c-2.077,5.927-3.482,12.525-5.84,18.171c19.434-6.524,37.409-14.508,56.458-21.416c2.845-5.808,6.843-10.462,10.383-15.574
	c5.355,3.729,10.002,8.169,20.767,6.489c2.561,4.795,5.334,9.375,7.788,14.276c5.737,0.752,14.552-1.573,18.17,1.298
	c-11.417,6.538-27.642,8.267-41.533,12.33c11.3,0.032,19.228-2.009,28.555-3.894c7.177-1.45,15.214-3.94,22.063-4.542
	c10.85-0.953,20.976,4.082,33.097,3.894c0-5.624,0-11.249,0-16.873c-21.764-6.141-47.167-8.642-70.735-12.979
	c4.891-5.062,11.662-8.239,16.873-12.979c-8.866-1.733-19.277-1.923-28.555-3.244c-0.433-35.044,0.602-68.62,0.649-103.184
	c-7.067-6.031-11.665-20.704-20.767-26.606c-3.413-2.213-9.047-4.27-13.627-6.489c-24.064-11.667-42.322-21.198-63.598-33.745
	c-6.43-3.793-17.398-13.15-22.713-13.629c-6.351-0.57-13.214,4.482-19.468,6.49c-7.203,2.312-13.501,4.38-19.468,5.191
	c-0.25-20.213,0.508-40.185,1.947-58.406c1.807-22.882,5.089-37.318,22.064-41.532c-1.865-0.731-5.06-0.131-6.489-1.298
	c1.109-3.217,4.293-4.359,8.436-4.542c0.089-2.685-4.175-1.017-3.245-4.543c1.949-0.863,4.964-0.66,7.788-0.648
	c1.531-0.551-1.789-1.599-0.649-3.894c4.246-0.529,6.616,0.7,7.138-3.894c1.366,1.447,2.161,3.464,5.192,3.245
	c0.452-2.576-1.131-7.188,1.298-7.788c6.639,3.528,11.544,8.79,16.224,14.277c1.729-1.299-0.745-6.802,1.947-7.138
	c5.948,4.002,9.022,10.879,14.277,15.575c0.406-1.973-0.831-5.59,0.648-6.489c5.417,1.938,7.803,6.906,11.682,10.383
	c2.043-2.134-1.162-6.266,1.297-7.138c4.711,3.94,7.818,9.487,12.979,12.979c1.549-1.047-0.526-5.717,1.946-5.841
	c3.396,2.877,5.051,7.496,9.734,9.085c0.279-2.1-0.854-5.613,1.299-5.84c5.121,3.315,9.189,7.682,13.627,11.681
	c0.133-2.03-0.438-4.764,0.649-5.84c5.139,4.379,10.698,8.338,15.575,12.979c-5.996,24.501-0.894,54.399,6.488,72.034
	c1.092,2.605,1.881,6.406,4.544,7.139c-4.734-14.896-4.041-42.41-1.298-58.406c0.759-4.428,0.617-10.01,3.893-12.33
	c1.973,19.443,6.389,36.442,12.979,51.268c-2.515-18.998-9.437-54.914,7.139-63.597c0.021,2.834-0.563,5.061-1.298,7.138
	c6.445-4.369,9.805-11.827,18.819-13.628c0.401,1.761-0.823,5.15,0.649,5.841c5.234-4.932,10.374-9.96,18.17-12.33
	c0.375,1.734-1.919,4.055,0,5.191c4.511-4.574,8.638-9.533,16.224-11.032c1.434,1.424-0.642,2.652,0,5.192
	c6.439-5.026,11.06-11.87,20.767-13.628c0.18,2.587-3.27,4.913-1.298,7.138c4.576-4.941,9.287-9.749,18.171-10.383
	c-0.522,2.723-2.281,4.208-2.596,7.139c6.82-5.51,12.826-11.833,22.713-14.277c-0.03,2.566-1.429,3.762-1.947,5.84
	c8.105-8.22,24.608-7.468,28.554,4.543c-2.106,0.375-3.019-0.442-4.542-0.649c2.022,4.467,8.048,4.93,9.085,10.383
	c-0.943,0.355-3.354-0.758-3.245,0.649c2.849,2.993,6.786,4.896,7.788,9.734c-2.428,0.862-4.485-1.934-5.841,0
	c3.002,2.623,6.424,4.824,7.139,9.734c0.464,1.762-3.06-0.464-2.596,1.298c2.03,2.014,5.416,5.626,4.542,8.436
	c-2.406,0.46-2.785-1.108-5.191-0.648c3.236,4.984,8.167,8.273,8.437,16.224c-2.833,0.454-2.886-1.874-5.191-1.946
	c2.101,3.955,5.008,7.105,5.84,12.329c-1.513,1.716-4.645-2.804-6.489-0.649c3.767,2.724,5.3,7.68,6.489,12.979
	c-2.96,0.365-2.744-2.446-5.84-1.946c1.505,5.2,5.155,8.256,5.191,14.926c-2.106,0.376-3.02-0.443-4.543-0.649
	c1.275,3.484,4.124,5.396,3.895,10.384c-1.236,1.216-1.631,0.07-3.245,0c-0.075,3.123,3.67,5.821,1.298,9.084
	c-10.26-4.233-20.295-8.69-32.447-11.031c-22.637,13.412-47.861,27.785-74.63,37.639c-12.465,4.589-26.999,6.439-36.341,16.224
	c2.271,3.138,1.396,9.42,2.596,13.628c6.203,2.11,15.496-1.051,20.767,0.649c17.091,5.511,49.92,18.937,70.087,5.841
	c-27.964,10.174-59.289-2.307-78.523-12.979c11.645-8.039,23.283-16.087,38.288-20.767c4.952,2.292,4.011,12.675-3.894,11.032
	c10.864,12.243,19.986-10.413,5.841-12.33c16.302-8.371,45.416-13.73,59.703,0c-6.098-9.044-17.037-13.247-31.799-13.628
	c4.646-3.148,10.125-5.057,16.224-9.085c4.764-3.146,10.582-9.658,14.926-10.384c8.942-1.492,18.558,4.307,25.958,7.788
	c0.888,7.593,1.733,12.087-0.648,18.819c-2.228,6.295-9.883,12.301-10.384,18.171c-0.404,4.741,4.125,11.604,5.841,18.171
	c1.389,5.313,2.787,11.237,3.245,16.224c1.086,11.846-2.802,15.124-7.139,21.415c-6.983,10.128-12.071,18.446-18.819,28.554
	c1.914,3.295-2.864,12.031-1.298,16.873c7.026-22.178,19.46-38.946,31.798-55.81c0.694-17.566-4.991-28.753-9.085-41.533
	c8.252-9.702,14.346-21.563,21.415-32.447c5.982,0.724,9.632,3.779,14.926,5.191c7.824,7.279,10.409,15.348,9.734,29.852
	c-2.889,62.092-29.394,96.72-62.948,125.247c14.063-10.737,33.549-23.461,45.427-44.128c5.121-8.912,9.09-20.654,12.979-31.799
	c4.087-11.714,8.981-23.316,10.383-34.396c3.271-25.848-0.163-57.538-24.661-59.054c1.308-17.775,2.877-37.697,3.895-57.107
	c0.704-13.438,4.081-26.532,3.245-38.288c-1.415-19.879-16.95-27.59-27.905-38.937c10.16-15.437,17.283-42.742,9.734-66.193
	c-14.392-8.453-32.026-12.453-49.97-17.521C498.902,33.82,466.916,24.145,436.156,17c-18.354-4.263-39.66-8.599-62.299-6.49
	c-28.893,2.692-56.015,12.119-80.47,22.064c-23.165,9.42-44.06,21.473-57.756,35.692c-9.651,34.023-33.159,75.45-25.309,118.108
	c4.686,25.463,13.167,50.968,18.82,75.279c-26.937-1.838-27.165,31.277-24.011,56.458c4.94,39.453,29.022,73.055,49.969,93.448
	C235.067,390.193,210.212,343.984,209.673,301.239z"/>
</svg>
