<?xml version="1.0" encoding="utf-8"?>
<!-- Generator: Adobe Illustrator 15.0.0, SVG Export Plug-In . SVG Version: 6.00 Build 0)  -->
<!DOCTYPE svg PUBLIC "-//W3C//DTD SVG 1.1//EN" "http://www.w3.org/Graphics/SVG/1.1/DTD/svg11.dtd">
<svg version="1.1" id="图层_1" xmlns="http://www.w3.org/2000/svg" xmlns:xlink="http://www.w3.org/1999/xlink" x="0px" y="0px"
	 width="841.891px" height="595.279px" viewBox="0 0 841.891 595.279" enable-background="new 0 0 841.891 595.279"
	 xml:space="preserve">
<path d="M445.11,218.544c-7.623-3.172-12.095-5.977-17.577-15.134c4.192,6.355,14.919,12.858,25.248,13.958
	c64.399,6.851,44.721-102.38-11.698-68.937c2.214-2.11,5.387-4.86,13.562-8.584c2.924-1.332,4.8-2.375,5.102-1.76
	c-0.879-6.383-3.752-25.923-14.801-43.446c-11.22-17.794-30.686-33.523-40.534-33.203c-9.071,0.295-27.208,16.502-38.216,34.703
	c-11.008,18.2-14.888,38.395-14.008,43.634c0.183-0.67,1.994,0.448,4.832,1.796c4.007,1.904,6.932,3.842,9.193,5.562
	c-0.022,0.069-0.057,0.139-0.077,0.208c-27.233-15.095-53.329,8.364-54.598,29.673c-2.364,39.688,53.113,55.314,67.654,21.364
	l-0.073-0.284c0.1,0.027,0.127,0.118,0.073,0.284c-2.928,8.945-9.137,17.731-19.169,19.827c-14.176,2.962-28.802-1.395-29.148-0.522
	c-25.667,63.066,1.261,140.714,60.876,152.937c2.104,0.432,4.248,0.781,6.432,1.049c5.496,39.725-15.267,71.041-18.991,104.447
	c-4.238,38.025,9.226,72.402,28.486,91.393c-12.359-16.137-21.893-33.855-23.738-58.158c-3.801-50.105,26.209-86.197,27.299-134.656
	c0.04-1.783,0.041-3.582,0-5.4c2.629-0.195,5.2-0.545,7.712-1.041c56.125-11.086,82.565-95.057,55.195-149.697
	C470.319,220.633,456.11,223.122,445.11,218.544z M426.78,201.52l-0.111,0.417C426.503,201.645,426.581,201.51,426.78,201.52z"/>
</svg>
