<?xml version="1.0" encoding="utf-8"?>
<!-- Generator: Adobe Illustrator 15.0.0, SVG Export Plug-In . SVG Version: 6.00 Build 0)  -->
<!DOCTYPE svg PUBLIC "-//W3C//DTD SVG 1.1//EN" "http://www.w3.org/Graphics/SVG/1.1/DTD/svg11.dtd">
<svg version="1.1" id="图层_1" xmlns="http://www.w3.org/2000/svg" xmlns:xlink="http://www.w3.org/1999/xlink" x="0px" y="0px"
	 width="841.89px" height="595.28px" viewBox="0 0 841.89 595.28" enable-background="new 0 0 841.89 595.28" xml:space="preserve">
<g>
	<path fill-rule="evenodd" clip-rule="evenodd" d="M381.842,157.141c-0.027-0.973-1.224-0.776-2-1
		c-8.644-13.188,12.589-25.332,14-11C394.399,150.802,389.358,156.827,381.842,157.141z M382.842,154.141
		c4.757-1.577,7.632-5.035,7-12C381.771,140.684,379.486,150.094,382.842,154.141z"/>
	<path fill-rule="evenodd" clip-rule="evenodd" d="M435.842,156.141c-1.162-0.163-1.778,0.221-2,1c-7.55-0.299-12.526-6.376-12-12
		C423.228,130.356,444.205,143.473,435.842,156.141z M432.842,154.141c2.483-5.163,0.153-13.233-7-12
		C425.119,149.197,427.221,153.429,432.842,154.141z"/>
	<path fill-rule="evenodd" clip-rule="evenodd" d="M375.842,116.141c9.162-9.932,15.714-24.502,31-25
		c16.466-0.536,23.316,14.733,33,25c10.283-2.717,20.3-5.7,26-13c-2.289,7.385-16.274,11.72-25,16c0.139,3.528,2.862,4.472,3,8
		c10.793-1.541,22.162-2.505,30-7c-6.755,5.578-17.066,7.6-28,9c2.695,9.639,6.507,18.16,8,29c-4.393-8.94-7.343-19.323-12-28
		c-7.083-1.809-15.467,3.682-19-1c1.585-4.416,11.151-0.849,16-2c1.822-1.245-2.158-5.107-3-7c-3.941,1.362-10.585,4.33-15,2
		c1.054-4.612,8.355-2.978,13-4c-3.07-7.262-8.412-12.254-14-17c-2.037,9.311-22.579,11.762-24,0c-5.518,4.482-10.507,9.493-14,16
		c3.129,2.538,10.531,0.803,13,4c-2.8,4.46-11.305,0.02-15-1c-1.731,1.603-2.929,3.737-4,6c3.365,2.968,13.635-0.968,17,2
		c-1.868,6.714-11.29-0.1-18,2c-5.791,7.209-9.21,16.79-12,27c-1.484-8.828,4.35-18.976,7-27c-11.636-3.665-20.341-4.648-25-7
		c-7.054-3.561,5.57,0.408,4,0c6.78,1.761,12.727,2.693,21,4c2.919-1.414,3.173-5.494,5-8c-9.792-3.875-19.097-8.236-26-15
		C354.633,107.358,364.995,114.648,375.842,116.141z"/>
	<path fill-rule="evenodd" clip-rule="evenodd" d="M387.842,208.141c-12.251,28.603-58.992,15.438-57-18
		c1.069-17.953,23.055-37.718,46-25c-3.654-0.056-10.759-1.972-17-1c-38.293,5.963-23.135,66.933,15,54
		C380.43,216.246,382.984,213.803,387.842,208.141z"/>
	<path fill-rule="evenodd" clip-rule="evenodd" d="M439.842,166.141c47.647-28.45,64.314,63.778,10,58
		c-9.377-0.998-19.153-7.281-22-13c-2.401-4.825,1.681-1.088,4,1c15.957,14.359,47,5.867,47-20
		C478.842,176.877,464.848,158.188,439.842,166.141z"/>
	<path fill-rule="evenodd" clip-rule="evenodd" d="M401.842,345.141c-2.836-14.863,12.854-16.36,13-1
		c47.286-8.072,67.69-65.078,53-119c24.092,48.097-1.301,123.165-53,127c0.98,43.155-26.321,74.234-23,118
		c1.554,20.477,9.586,35.404,20,49c-16.227-16-27.571-44.963-24-77c3.137-28.145,20.63-54.531,16-88
		c-53.969-6.6-79.389-73.99-57-129c1.095-2.761-0.372,5.09-1,8C335.016,283.258,356.742,337.65,401.842,345.141z"/>
</g>
</svg>
