<?xml version="1.0" encoding="utf-8"?>
<!-- Generator: Adobe Illustrator 15.0.0, SVG Export Plug-In . SVG Version: 6.00 Build 0)  -->
<!DOCTYPE svg PUBLIC "-//W3C//DTD SVG 1.1//EN" "http://www.w3.org/Graphics/SVG/1.1/DTD/svg11.dtd">
<svg version="1.1" id="图层_1" xmlns="http://www.w3.org/2000/svg" xmlns:xlink="http://www.w3.org/1999/xlink" x="0px" y="0px"
	 width="841.89px" height="595.28px" viewBox="0 0 841.89 595.28" enable-background="new 0 0 841.89 595.28" xml:space="preserve">
<circle fill="#FAEE00" cx="355" cy="322.667" r="1.5"/>
<circle fill="#FAEE00" cx="355" cy="313.333" r="1.5"/>
<circle fill="#FAEE00" cx="355" cy="303.167" r="1.5"/>
<circle fill="#FAEE00" cx="355" cy="293.5" r="1.5"/>
<circle fill="#FAEE00" cx="355" cy="274.5" r="1.5"/>
<circle fill="#FAEE00" cx="355" cy="283.833" r="1.5"/>
<circle fill="#FAEE00" cx="362" cy="282.333" r="1.5"/>
<circle fill="#FAEE00" cx="396.167" cy="320.084" r="1.5"/>
<circle fill="#FAEE00" cx="397" cy="310.75" r="1.5"/>
<circle fill="#FAEE00" cx="397" cy="300.584" r="1.5"/>
<circle fill="#FAEE00" cx="397" cy="290.917" r="1.5"/>
<circle fill="#FAEE00" cx="394.667" cy="273" r="1.5"/>
<circle fill="#FAEE00" cx="396.167" cy="280.833" r="1.5"/>
<circle fill="#FAEE00" cx="367.907" cy="290.5" r="1.5"/>
<circle fill="#FAEE00" cx="374.667" cy="299.084" r="1.5"/>
<circle fill="#FAEE00" cx="381" cy="306.167" r="1.5"/>
<circle fill="#FAEE00" cx="388.5" cy="313.75" r="1.5"/>
<circle fill="#FAEE00" cx="416.25" cy="308.5" r="1.5"/>
<circle fill="#FAEE00" cx="423.25" cy="304.667" r="1.5"/>
<circle fill="#FAEE00" cx="430.167" cy="301.333" r="1.5"/>
<circle fill="#FAEE00" cx="435.167" cy="296.084" r="1.5"/>
<circle fill="#FAEE00" cx="430.167" cy="290.917" r="1.5"/>
<circle fill="#FAEE00" cx="422.667" cy="290.5" r="1.5"/>
<circle fill="#FAEE00" cx="415.667" cy="293.5" r="1.5"/>
<circle fill="#FAEE00" cx="411.333" cy="300.584" r="1.5"/>
<circle fill="#FAEE00" cx="409.833" cy="307.667" r="1.5"/>
<circle fill="#FAEE00" cx="411.333" cy="315.25" r="1.5"/>
<circle fill="#FAEE00" cx="417.75" cy="320.359" r="1.5"/>
<circle fill="#FAEE00" cx="425.667" cy="322.234" r="1.5"/>
<circle fill="#FAEE00" cx="433.667" cy="320.734" r="1.5"/>
<circle fill="#FAEE00" cx="439" cy="315.25" r="1.5"/>
<circle fill="#FAEE00" cx="448.875" cy="289.417" r="1.5"/>
<circle fill="#FAEE00" cx="450.375" cy="298.333" r="1.5"/>
<circle fill="#FAEE00" cx="451.875" cy="307.667" r="1.5"/>
<circle fill="#FAEE00" cx="453.375" cy="315.792" r="1.5"/>
<circle fill="#FAEE00" cx="454.875" cy="322.667" r="1.5"/>
<circle fill="#FAEE00" cx="459" cy="316.75" r="1.5"/>
<circle fill="#FAEE00" cx="461.375" cy="309.167" r="1.5"/>
<circle fill="#FAEE00" cx="464.375" cy="301.333" r="1.5"/>
<circle fill="#FAEE00" cx="467.75" cy="293.5" r="1.5"/>
<circle fill="#FAEE00" cx="470.75" cy="300.584" r="1.5"/>
<circle fill="#FAEE00" cx="472.125" cy="308.25" r="1.5"/>
<circle fill="#FAEE00" cx="473.625" cy="315.792" r="1.5"/>
<circle fill="#FAEE00" cx="476.25" cy="322.667" r="1.5"/>
<circle fill="#FAEE00" cx="480.375" cy="315.792" r="1.5"/>
<circle fill="#FAEE00" cx="482.5" cy="307.667" r="1.5"/>
<circle fill="#FAEE00" cx="487" cy="289.417" r="1.5"/>
<circle fill="#FAEE00" cx="484.75" cy="299.084" r="1.5"/>
</svg>
