<?xml version="1.0" encoding="iso-8859-1"?>
<!-- Generator: Adobe Illustrator 21.0.0, SVG Export Plug-In . SVG Version: 6.00 Build 0)  -->
<svg version="1.1" id="Capa_1" xmlns="http://www.w3.org/2000/svg" xmlns:xlink="http://www.w3.org/1999/xlink" x="0px" y="0px"
	 viewBox="0 0 512 512" style="enable-background:new 0 0 512 512;" xml:space="preserve">
<g>
	<path style="fill:#31A7ED;" d="M245.001,21.999c-81.087,0-152.96,39.402-197.553,100.093l166.037,387.896
		c10.318,1.325,20.837,2.012,31.516,2.012c135.31,0,245.001-109.69,245.001-245.001C490.001,131.689,380.311,21.999,245.001,21.999z
		"/>
	<path style="fill:#5766CE;" d="M75.987,102.159c-9.941,5.739-19.26,12.141-27.941,19.112C17.861,162,0,212.412,0,266.999
		c0,124.996,93.608,228.121,214.545,243.118c27.767-3.655,55.292-12.702,81.055-27.576
		c105.04-60.645,141.029-194.958,80.384-299.998C315.34,77.504,181.026,41.514,75.987,102.159z"/>
	<path style="fill:#3D4EC6;" d="M278.131,438.656c-121.131,0-219.328-98.196-219.328-219.328c0-48.534,15.781-93.372,42.469-129.699
		c-8.576,3.588-17.022,7.759-25.286,12.53c-9.941,5.739-19.26,12.141-27.941,19.112C17.861,162,0,212.412,0,266.999
		c0,124.996,93.608,228.121,214.545,243.118c27.767-3.655,55.292-12.702,81.055-27.576c27.588-15.928,50.405-36.944,67.967-61.17
		C337.309,432.492,308.443,438.656,278.131,438.656z"/>
	<path style="fill:#3D4EC6;" d="M329.358,126.1c-5.631,10.28-9.073,21.629-10.102,33.275c-1.086,12.297-7.957,23.339-18.648,29.512
		l-0.001,0c-10.7,6.177-23.704,6.591-34.907,1.383c-24.098-11.203-53.088-10.885-77.851,3.412
		c-24.763,14.297-39.533,39.244-41.88,65.715c-1.091,12.307-7.951,23.361-18.651,29.539l0,0
		c-10.691,6.173-23.689,6.602-34.882,1.394c-24.825-11.55-54.847-10.872-80.091,4.724c-3.491,2.157-6.754,4.553-9.818,7.128
		c8.267,57.482,36.476,108.518,77.407,145.859c6.516-1.863,12.912-4.546,19.048-8.089c24.763-14.297,39.533-39.244,41.88-65.715
		c1.091-12.307,7.951-23.361,18.651-29.539c10.7-6.177,23.704-6.591,34.907-1.383c24.098,11.203,53.088,10.885,77.851-3.412
		c24.763-14.297,39.533-39.244,41.88-65.715c1.091-12.306,7.952-23.361,18.651-29.539c10.7-6.178,23.704-6.591,34.907-1.383
		c10.595,4.925,22.134,7.621,33.845,7.884c-4.492-23.52-12.921-46.701-25.569-68.608C363.337,160.638,347.478,141.749,329.358,126.1
		z"/>
	<path style="fill:#3342AE;" d="M68.266,283.215c-18.727-2.592-38.467,1.055-55.923,11.839c-3.491,2.157-6.754,4.553-9.818,7.128
		c8.267,57.482,36.476,108.518,77.407,145.859c6.516-1.863,12.912-4.546,19.048-8.089c20.292-11.715,33.867-30.583,39.402-51.58
		C105.655,361.286,80.933,324.876,68.266,283.215z"/>
	<path style="fill:#3D4EC6;" d="M338.496,388.136c-1.086,12.297-7.957,23.339-18.648,29.512l-0.001,0
		c-10.699,6.177-23.703,6.591-34.907,1.383c-24.098-11.203-53.088-10.885-77.851,3.412c-24.763,14.297-39.533,39.244-41.88,65.715
		c-0.3,3.38-1.043,6.661-2.176,9.775c16.435,5.834,33.671,9.971,51.507,12.183c27.768-3.651,55.295-12.7,81.06-27.576
		c63.951-36.922,102.305-101.152,108.841-169.456c-7.463,1.626-14.805,4.283-21.81,8.053
		C356.503,335.202,340.905,360.862,338.496,388.136z"/>
	<path style="fill:#3342AE;" d="M278.131,438.656c-26.571,0-52.037-4.727-75.606-13.383c-22.011,14.62-35.117,38.083-37.316,62.885
		c-0.3,3.38-1.043,6.661-2.176,9.775c16.435,5.834,33.671,9.971,51.507,12.183c27.768-3.651,55.295-12.7,81.06-27.576
		c27.586-15.926,50.395-36.942,67.956-61.166C337.301,432.493,308.439,438.656,278.131,438.656z"/>
	<path style="fill:#232E7A;" d="M36.345,329.925c-9.622,5.555-16.774,13.613-20.98,22.623c7.934,21.288,18.744,41.17,31.956,59.185
		c10.576,1.456,22.058-0.591,32.45-6.591c23.031-13.297,31.981-40.914,19.989-61.685C87.768,322.686,59.376,316.628,36.345,329.925z
		"/>
	<path style="fill:#3D4EC6;" d="M48.078,121.228c-13.176,17.77-23.995,37.388-32.017,58.39c11.049,2.001,23.159,4.248,37.311,5.261
		c39.443,2.825,66.635-19.354,73.158-47.175c2.362-10.072,8.683-18.847,17.777-24.098c10.7-6.177,23.704-6.591,34.907-1.383
		c24.098,11.203,53.088,10.885,77.851-3.412c7.704-4.448,14.437-9.931,20.135-16.166C199.066,56.962,110.857,70.783,48.078,121.228z
		"/>
	<path style="fill:#3342AE;" d="M61.474,185.099c5.536-35.306,19.494-67.812,39.755-95.41
		c-19.006,7.922-36.929,18.504-53.151,31.539c-13.176,17.77-23.995,37.388-32.017,58.39c11.049,2.001,23.159,4.248,37.311,5.261
		C56.136,185.077,58.833,185.14,61.474,185.099z"/>
	
		<ellipse transform="matrix(0.866 -0.5 0.5 0.866 -114.5416 45.8382)" style="fill:#5766CE;" cx="28.264" cy="236.657" rx="19.993" ry="16.388"/>
	<path style="fill:#F6D100;" d="M360.174,9.986c-11.87,5.18-25.862,1.431-33.552-8.99c-0.734-0.995-2.089-1.292-3.159-0.674
		l-0.001,0c-1.071,0.618-1.49,1.94-0.996,3.073c5.179,11.87,1.43,25.862-8.991,33.552c-0.995,0.734-1.292,2.089-0.674,3.16l0,0
		c0.618,1.071,1.94,1.491,3.073,0.996c11.871-5.18,25.864-1.431,33.554,8.991c0.734,0.995,2.089,1.292,3.16,0.674
		c1.071-0.618,1.491-1.94,0.996-3.073c-5.181-11.872-1.432-25.864,8.99-33.554c0.995-0.734,1.292-2.089,0.674-3.16l0,0
		C362.629,9.911,361.307,9.491,360.174,9.986z"/>
	
		<ellipse transform="matrix(0.866 -0.5 0.5 0.866 21.2748 127.5148)" style="fill:#F6D100;" cx="248.582" cy="24.058" rx="14.093" ry="14.093"/>
	<path style="fill:#A9D8FC;" d="M400.984,78.092c-17.778-2.542-38.588-2.514-62.241,0.438c-4.963,0.62-8.485,5.145-7.866,10.109
		c0.619,4.963,5.143,8.49,10.109,7.865c120.698-15.063,148.9,46.311,72.888,141.762c-40.056,50.299-102.643,101.398-176.233,143.886
		c-54.668,31.563-107.969,54.169-155.444,67.913c5.328,4.742,10.856,9.264,16.586,13.532
		C216.525,426.403,353.017,343.76,428.044,249.55c50.899-63.915,58.01-116.639,29.063-146.55h-30.102
		C418.957,94.074,410.252,85.754,400.984,78.092z"/>
	
		<ellipse transform="matrix(0.5 -0.866 0.866 0.5 130.1452 444.9059)" style="fill:#F6D100;" cx="450.373" cy="109.744" rx="61.617" ry="61.617"/>
	
		<ellipse transform="matrix(0.5 -0.866 0.866 0.5 130.1452 444.9059)" style="fill:#F2BA00;" cx="450.373" cy="109.744" rx="61.617" ry="61.617"/>
	<path style="fill:#EEA200;" d="M449.453,139.048c-29.471-17.015-39.569-54.7-22.553-84.171c0.545-0.945,1.114-1.868,1.701-2.772
		c-12.858,4.848-24.183,14.002-31.589,26.831c-17.015,29.471-6.917,67.155,22.554,84.171c28.527,16.47,64.747,7.535,82.47-19.781
		C485.355,149.614,466.095,148.656,449.453,139.048z"/>
	<path style="fill:#F6D100;" d="M397.011,78.935c-6.013,10.415-8.625,21.854-8.207,33.045c10.636-8.647,25.548-15.662,45.076-13.462
		c25.182,2.836,45.049-13.642,55.988-36.059c-2.677-2.231-5.566-4.276-8.686-6.077C451.71,39.367,414.026,49.464,397.011,78.935z"/>
	<path style="fill:#F2BA00;" d="M388.803,111.981c7.956-6.468,18.308-12.021,31.192-13.489c-3.394-15.948-0.395-32.518,8.605-46.387
		C404.757,61.095,388.027,84.261,388.803,111.981z"/>
	<path style="fill:#F6D100;" d="M454.809,146.618c-3.125,9.736-7.164,17.768-11.448,24.346c23.637,2.695,47.72-8.496,60.374-30.412
		c5.092-8.819,7.738-18.374,8.181-27.89C484.308,128.289,464.559,116.246,454.809,146.618z"/>
	<path style="fill:#F2BA00;" d="M456.315,142.452c-0.526,1.293-1.029,2.677-1.507,4.166c-3.124,9.733-7.162,17.764-11.445,24.341
		c22.702,2.582,45.644-7.602,58.657-27.63C487.594,148.766,471.239,148.768,456.315,142.452z"/>
	<path style="fill:#F2BA00;" d="M394.7,136.132c5.171,10.935,13.595,20.468,24.864,26.974c0.046,0.026,0.093,0.049,0.139,0.076
		c11.631-17.712,22.128-38.652,6.536-38.399C414.356,124.975,403.325,130.27,394.7,136.132z"/>
	<g>
		<path style="fill:#4AC4F4;" d="M176.888,413.915c-33.112,15.522-65.038,27.565-94.692,36.149
			c5.328,4.742,10.857,9.264,16.586,13.532c28.081-8.87,57.229-20.331,86.354-33.913
			C177.019,429.619,172.383,420.503,176.888,413.915z"/>
	</g>
</g>
<g>
</g>
<g>
</g>
<g>
</g>
<g>
</g>
<g>
</g>
<g>
</g>
<g>
</g>
<g>
</g>
<g>
</g>
<g>
</g>
<g>
</g>
<g>
</g>
<g>
</g>
<g>
</g>
<g>
</g>
</svg>
