<?xml version="1.0" encoding="utf-8"?>
<!-- Generator: Adobe Illustrator 15.0.0, SVG Export Plug-In . SVG Version: 6.00 Build 0)  -->
<!DOCTYPE svg PUBLIC "-//W3C//DTD SVG 1.1//EN" "http://www.w3.org/Graphics/SVG/1.1/DTD/svg11.dtd">
<svg version="1.1" id="图层_1" xmlns="http://www.w3.org/2000/svg" xmlns:xlink="http://www.w3.org/1999/xlink" x="0px" y="0px"
	 width="841.89px" height="595.28px" viewBox="0 0 841.89 595.28" enable-background="new 0 0 841.89 595.28" xml:space="preserve">
<polyline fill="none" stroke="#FAEE00" stroke-miterlimit="10" points="275.333,216 274.333,225.833 274.333,236.667 
	274.333,246.833 274.333,256.333 273.5,267.667 272.667,278.333 272.667,287.42 "/>
<polyline fill="none" stroke="#FAEE00" stroke-miterlimit="10" points="280.833,256.833 288.833,255.5 297,254.333 305.167,252.667 
	313.333,251.71 321.167,250.833 "/>
<polyline fill="none" stroke="#FAEE00" stroke-miterlimit="10" points="328.5,215.167 326.667,221.5 326.667,230.167 326.667,239 
	325.667,247.167 325,255.167 325,263.167 325.667,270.5 326,278.167 325.833,286.167 "/>
<polyline fill="none" stroke="#FAEE00" stroke-miterlimit="10" points="378.5,244.667 370.833,240.833 362,241.667 354,246.833 
	348.667,253.833 345.333,263.833 345.333,272.833 348.833,280.667 355.5,285.167 365,286.167 372.667,283.167 "/>
<polyline fill="none" stroke="#FAEE00" stroke-miterlimit="10" points="377.667,250.667 376.833,258.333 376.833,266.333 
	377.667,274 379.667,281.833 383.5,287.42 "/>
<polyline fill="none" stroke="#FAEE00" stroke-miterlimit="10" points="400.5,238.167 399.5,245 400,253.833 400.5,262.333 
	400.5,272 400.5,281.333 400.5,291.5 400.5,301.666 400.5,312 "/>
<polyline fill="none" stroke="#FAEE00" stroke-miterlimit="10" points="406.167,248.167 413,244.167 421.5,242.5 428.834,246.333 
	432.667,252.833 433.5,261 432.667,270 430.167,278 422.667,282.667 414.667,284.333 407,282.833 "/>
<polyline fill="none" stroke="#FAEE00" stroke-miterlimit="10" points="454.333,238.167 453.333,245 453.833,253.833 
	454.333,262.333 454.333,272 454.333,281.333 454.333,291.5 454.333,301.666 454.333,312 "/>
<polyline fill="none" stroke="#FAEE00" stroke-miterlimit="10" points="460,248.167 466.833,244.167 475.333,242.5 482.667,246.333 
	486.5,252.833 487.333,261 486.5,270 484,278 476.5,282.667 468.5,284.333 460.833,282.833 "/>
<polyline fill="none" stroke="#FAEE00" stroke-miterlimit="10" points="500.167,240.833 504.453,248.933 508.834,256.703 
	513.082,264.374 517.5,273.667 "/>
<polyline fill="none" stroke="#FAEE00" stroke-miterlimit="10" points="541.334,240.833 538.334,247.833 534.834,255.833 531,263.5 
	527,270.833 523,278.167 519.5,287.42 516.167,295.667 512.834,303.5 510.5,312 "/>
</svg>
