<?xml version="1.0" encoding="utf-8"?>
<!-- Generator: Adobe Illustrator 15.0.0, SVG Export Plug-In . SVG Version: 6.00 Build 0)  -->
<!DOCTYPE svg PUBLIC "-//W3C//DTD SVG 1.1//EN" "http://www.w3.org/Graphics/SVG/1.1/DTD/svg11.dtd">
<svg version="1.1" id="图层_1" xmlns="http://www.w3.org/2000/svg" xmlns:xlink="http://www.w3.org/1999/xlink" x="0px" y="0px"
	 width="595.28px" height="841.89px" viewBox="0 0 595.28 841.89" enable-background="new 0 0 595.28 841.89" xml:space="preserve">
<path fill-rule="evenodd" clip-rule="evenodd" fill="#5C1B17" d="M294.918,215.328c1.654,1.078,1.654,8.922,0,10
	C294.917,221.995,294.918,218.662,294.918,215.328z"/>
<path fill-rule="evenodd" clip-rule="evenodd" fill="#5C1B17" d="M256.918,371.328c5.013-2.32,14.322-0.344,21-1
	C272.904,372.648,263.595,370.672,256.918,371.328z"/>
<path fill-rule="evenodd" clip-rule="evenodd" fill="#5C1B17" d="M281.918,553.328c1.664,7.012,1.664,20.986,0,28
	C281.918,571.994,281.918,562.66,281.918,553.328z"/>
<path fill-rule="evenodd" clip-rule="evenodd" fill="#D55B33" d="M324.918,178.328c-4.206,6.958-17.724,7.346-29,8
	c-21.298,1.235-48.496,1.919-59-9c-18.289-19.011,7.793-44.561,24-52c-9.418-5.919-5.866-33.465-8-50c-0.635-3.699-5.616-3.051-10-3
	c1.089-11.724,21.362-6.861,24,0c-2.382,14.096-8.482,38.307,2,48c11.926-7.074,27.68-10.319,37-20c-0.881-3.119-5.742-2.258-8-4
	c4.547-10.033,23.324,0.203,22,9c-1.178,7.819-36.764,15.951-45,20c-14.688,7.219-42.805,21.722-34,42
	c5.085,11.714,35.476,11.525,54,9C305.635,174.867,318.146,167.173,324.918,178.328z"/>
<path fill-rule="evenodd" clip-rule="evenodd" fill="#5C1B17" d="M214.918,292.328c13.249-14.083,26.916-27.75,41-41
	C242.668,265.412,229.001,279.078,214.918,292.328z"/>
<path fill-rule="evenodd" clip-rule="evenodd" fill="#5C1B17" d="M234.918,279.328c-2.879,0.167,8.356-9.856,12-13
	C243.51,271.254,238.325,274.402,234.918,279.328z"/>
<path fill-rule="evenodd" clip-rule="evenodd" fill="#5C1B17" d="M219.918,369.328c5.143,2.856,16.89-0.89,22,2
	C234.989,370.256,223.615,373.631,219.918,369.328z"/>
<path fill-rule="evenodd" clip-rule="evenodd" fill="#D55B33" d="M219.918,369.328c4.449-4.55,17.247-0.752,25-2c0-8,0-16,0-24
	c-9.607,0.727-16.694,3.973-26,5c4.723-7.958,16.089-9.094,24-13c8.561-4.227,15.879-9.36,23-14c5.447,3.886,11.918,6.748,15,13
	c-7.959-0.524-16.442,2.345-24,5c0,9.333,0,18.667,0,28c8.869,1.536,8.834-5.832,13-9c4.96,3.04,10.626,5.374,13,11
	c-2.41-0.409-2.174,1.826-5,1c-6.678,0.656-15.987-1.32-21,1c0,5.333,0,10.667,0,16c7.249,5.091,26.054,12.436,23,24
	c-0.864,3.271-3.766,5.282-7,5c-8.87-0.773-6.354-20.413-16-23c-0.653,21.348,1.313,45.314-1,65c-0.891,0.775-2.259,1.074-4,1
	c-2,0-4,0-6,0c0-19.668,0-39.333,0-59c-1.163-0.163-1.779,0.221-2,1c-6.077,11.959-14.497,26.787-25,31
	c7.688-16.334,19.107-37.542,23-61C236.808,368.438,225.061,372.185,219.918,369.328z"/>
<path fill-rule="evenodd" clip-rule="evenodd" fill="#5C1B17" d="M240.918,504.328c0-2,0-4,0-6c13.311-1.799,30.007-1,47-1
	c16.515-0.002,44.196-1.441,48,2c-29.335-2.334-63-0.334-94-1C241.342,500.086,243.126,504.203,240.918,504.328z"/>
<path fill-rule="evenodd" clip-rule="evenodd" fill="#5C1B17" d="M321.918,509.328c3.275,1.723,4.724,5.275,8,7
	c0.221,0.777,0.837,1.162,2,1c0.124,2.502,1.908,3.129-1,4C332.22,516.732,323.87,513.922,321.918,509.328z"/>
<path fill-rule="evenodd" clip-rule="evenodd" fill="#5C1B17" d="M246.918,515.328c20.078-3.59,49.561,2.227,68-3
	c0.003,1.002-0.811,1.189-1,2C293.566,516.643,268.931,514.674,246.918,515.328z"/>
<path fill-rule="evenodd" clip-rule="evenodd" fill="#5C1B17" d="M220.918,552.328c-1.172-0.162-0.844-1.824-1-3
	c20.333,0,40.666,0,61,0c2.963-2.727-1.98-18.617,5-14c-6.165-0.166-1.595,10.404-3,15
	C262.901,551.645,237.606,547.682,220.918,552.328z"/>
<path fill-rule="evenodd" clip-rule="evenodd" fill="#5C1B17" d="M257.918,585.328c-1.615,0.281-1.722-0.945-3-1
	c4.941-4.393,17.801-0.867,26-2C276.46,585.674,254.343,580.439,257.918,585.328z"/>
<path fill-rule="evenodd" clip-rule="evenodd" fill="#5C1B17" d="M294.918,549.328c13.196-1.139,31.063,2.396,41-2
	C328.139,553.221,305.907,549.977,294.918,549.328z"/>
<path fill-rule="evenodd" clip-rule="evenodd" fill="#C82627" d="M330.918,521.328c-13.912,4.42-24.216,12.451-36,19c0,3,0,6,0,9
	c10.989,0.648,33.221,3.893,41-2c0.989-3.344,4.01-4.658,5-8c6.004,3.328,12.519,6.146,16,12c-16.86,4.473-41.859,0.807-62,2
	c-0.453,11.879,1.035,25.701-1,36c-4.396,4.604-10.792,7.207-19,8c0.729-4.73-1.427-6.574-3-9c-4.519-1.148-8.521-2.813-14-3
	c-3.575-4.889,18.542,0.346,23-3c0.85,0.184,0.942-0.391,1-1c1.664-7.014,1.664-20.988,0-28c-20.002-0.666-42.665,1.33-61-1
	c16.688-4.646,41.983-0.684,62-2c1.405-4.596-3.165-15.166,3-15c13.546,0.213,16.605-10.063,24-16c-18.67-2.998-44.331,0.996-63-2
	c0-0.668,0-1.334,0-2c22.013-0.654,46.648,1.314,67-1c0.189-0.811,1.003-0.998,1-2c2.63-0.719,3.79-5.916,7-3
	C323.87,513.922,332.22,516.732,330.918,521.328z"/>
<path fill-rule="evenodd" clip-rule="evenodd" fill="#5C1B17" d="M355.918,501.328c1.009-4.928-7.743-8.074-10-13
	c3.588,3.914,11.519,8.248,11,13C356.584,501.328,356.251,501.328,355.918,501.328z"/>
<path fill-rule="evenodd" clip-rule="evenodd" fill="#C82627" d="M318.918,477.328c-0.139,3.527-2.862,4.471-3,8
	c10.491,0.824,11.762-7.572,18-11c-6.014,7.32-13.255,13.412-20,20c8.822-1.344,13.136,1.881,20,0c6.797-1.865,7.109-10.773,12-6
	c2.257,4.926,11.009,8.072,10,13c-10.379,2.955-13.915,12.752-24,16c-1.163,0.162-1.779-0.223-2-1c1.878-5.789,4.22-11.113,6-17
	c-3.804-3.441-31.485-2.002-48-2c-16.993,0-33.689-0.799-47,1c0,2,0,4,0,6c0.417,11.326-13.593,19.439-21,11
	c2.975-12.125,17.241-12.527,18-28c3.255,0.076,2.134,4.531,3,7c21.999,0,44,0,66,0
	C312.638,490.381,313.923,481.998,318.918,477.328z"/>
<path fill-rule="evenodd" clip-rule="evenodd" fill="#5C1B17" d="M333.918,474.328c1.231-2.102,2.768-3.9,4-6c2,0,4,0,6,0
	c0.003-1.004-0.811-1.191-1-2C347.87,469.322,334.516,470.316,333.918,474.328z"/>
<path fill-rule="evenodd" clip-rule="evenodd" fill="#C82627" d="M322.918,459.328c2.333,0,4.666,0,7,0c0.189,0.809,1.003,0.996,1,2
	c-1.913,0.465-4.305-3.084-4,1c-0.334,0-0.667,0-1,0C327.473,458.773,322.521,461.723,322.918,459.328z"/>
<path fill-rule="evenodd" clip-rule="evenodd" fill="#C82627" d="M331.918,458.328c5.197-10.803-0.566-32.566,3-45
	c0,6.904,0,15.969,0,24C334.918,445.328,337.273,454.783,331.918,458.328z"/>
<path fill-rule="evenodd" clip-rule="evenodd" fill="#C82627" d="M286.918,464.328c3.396,1.27,5.729,3.604,7,7
	c-2.952-1.383-4.049-4.619-7-6C286.918,464.994,286.918,464.66,286.918,464.328z"/>
<path fill-rule="evenodd" clip-rule="evenodd" fill="#D55B33" d="M249.918,480.328c-3.393-6.275-7.418-11.916-11-18
	c8.649,0.445,19.874,6.719,23,16c0.579,3.246-0.682,4.65-1,7c-3,0-6,0-9,0C252.067,482.844,251.4,481.178,249.918,480.328z"/>
<path fill-rule="evenodd" clip-rule="evenodd" fill="#C82627" d="M249.918,480.328c1.482,0.85,2.149,2.516,2,5c3,0,6,0,9,0
	c0.318-2.35,1.579-3.754,1-7C268.052,490.689,247.955,494.865,249.918,480.328z"/>
<path fill-rule="evenodd" clip-rule="evenodd" fill="#C82627" d="M281.918,608.328c14.419,19.566-5.862,71.549-22,84
	c-22.295,17.199-35.502-9.57-34-32c2.042-30.525,28.831-54.85,57-58c41.43-4.635,67.782,18.27,68,54
	c0.235,38.645-28.495,53.375-68,55c0.037-4.301,6.743-4.293,9-5c22.201-6.971,43.59-18.418,45-48
	C338.334,628.607,319.889,600.209,281.918,608.328z M248.918,627.328c-8.997,11.867-19.446,44.424-4,57
	c24.212-9.65,34.587-43.145,31-74c-7.835,0.164-11.142,4.857-17,7C255.165,620.242,251.832,623.574,248.918,627.328z"/>
<path fill-rule="evenodd" clip-rule="evenodd" fill="#D55B33" d="M294.918,215.328c-10.722,0.388-21.075,0.408-22-9
	c6.927,2.593,13.257,4.583,22,3c1.563-2.293,1.563-9.707,0-12c-0.141-2.86-4.172-1.829-7-2c1.217-8.034,14.652-4.854,18-1
	c0.17,5.504-3.093,7.574-3,13c14.641,5.661,27.105-14.045,38-3c-7.349,8.652-23.879,8.122-38,10c-1.299,4.369-2.005,9.329-2,15
	c5.995-1.004,11.345-2.655,19-2c2.931-0.847-0.599-3.22,0-5c2.313-1.813,5.343,2.061,6,5c10.861,2.094,19.318,4.44,24,11
	c17.36,24.327-16.091,46.968-41,43c2.776-5.72,13.061-3.977,20-7c18.14-7.903,24.078-36.391-2-43c-4.491,11.509-10.748,21.252-19,29
	c1.586,3.718,4.657,7.263,1,11c-4.868,0.535-4.68-3.987-8-5c-7.048,3.252-12.003,8.828-21,8c-24.29-2.235-3.009-42.927,15-42
	c0-2.333,0-4.667,0-7C296.572,224.25,296.572,216.406,294.918,215.328z M300.918,234.328c0.19,8.142,0.02,16.646,4,21
	c5.582-7.417,12.364-13.636,15-24C312.092,230.836,305.859,231.936,300.918,234.328z M276.918,266.328
	c8.622,3.122,16.122-2.183,21-6c-3.675-5.659-0.915-17.752-5-23C284.855,243.748,272.901,251.109,276.918,266.328z"/>
<path fill-rule="evenodd" clip-rule="evenodd" fill="#D55B33" d="M234.918,279.328c19.326-10.148,46.482-6.042,44,18
	c-1.409,13.645-18.867,23.9-37,20c-4.987-1.073-11.577-5.114-12-11c-1.299-18.055,34.645-14.158,31,3c5.367-0.965,7.005-5.661,10-9
	c2.857-14.566-5.279-22.699-16-23c-17.615-0.495-31.527,17.462-39,23c-1.784-1.34-3.094-5.788-1-8c14.083-13.25,27.75-26.917,41-41
	c-10.588-2.149-36.338,15.924-33-6c3.414-3.296,2.035,3.84,5,4c12.854,0.188,23.529-1.804,32-6c2.106,2.226,5.912,2.754,7,6
	c-5.462,6.872-13.436,11.231-20,17C243.274,269.472,232.039,279.495,234.918,279.328z M234.918,305.328
	c0.482,7.049,12.294,7.138,20,6C255.906,298.286,234.142,294.012,234.918,305.328z"/>
<path fill-rule="evenodd" clip-rule="evenodd" fill="#D55B33" d="M305.918,361.328c-4.786-9.881-11.875-17.458-19-25
	c5.753,0.613,18.894,2.259,25,9C317.8,351.823,317.31,365.318,305.918,361.328z"/>
<path fill-rule="evenodd" clip-rule="evenodd" fill="#D55B33" d="M309.918,399.328c-9.03,2.754-10.151-6.552-14-11
	c-5.14-5.939-13.534-7.929-13-13C297.578,376.494,319.592,383.501,309.918,399.328z"/>
<path fill-rule="evenodd" clip-rule="evenodd" fill="#D55B33" d="M322.918,459.328c0-14.334,0-28.666,0-43
	c-13.811-0.768-31.893,8.054-47,6c5.084-5.714,15.007-4.465,23-6c8.413-1.616,16.206-4.219,24-5c0-30,0-60,0-90
	c6.575-0.242,10.905,1.761,18,1c1.355,5.356-4.902,3.098-6,6c0,27,0,54,0,81c7.747-0.252,8.454-7.545,11-13
	c4.754,2.262,12.628,6.684,13,10c-4.337,5.997-16.777,3.89-24,7c-3.566,12.434,2.197,34.197-3,45c-0.028,0.973-1.225,0.775-2,1
	C327.584,459.328,325.251,459.328,322.918,459.328z"/>
<path fill-rule="evenodd" clip-rule="evenodd" fill="#D55B33" d="M283.918,481.328c-2.471-8.197-4.914-16.42-10-22
	c4.595-2.563,9.802,2.84,13,5c0,0.332,0,0.666,0,1c2.951,1.381,4.048,4.617,7,6c1.342,0.656,1.862,2.137,2,4
	c0.412,4.412-0.272,7.727-2,10c-3.13-0.205-7.342,0.674-9-1C285.004,482.908,285.083,481.496,283.918,481.328z"/>
<path fill-rule="evenodd" clip-rule="evenodd" fill="#D55B33" d="M330.918,461.328c4.833,0.832,8.542,2.791,12,5
	c0.189,0.809,1.003,0.996,1,2c-2,0-4,0-6,0c-1.232,2.1-2.769,3.898-4,6c-6.238,3.428-7.509,11.824-18,11
	c0.138-3.529,2.861-4.473,3-8c1.651-5.682,4.788-9.879,7-15c0.333,0,0.666,0,1,0C326.613,458.244,329.005,461.793,330.918,461.328z"
	/>
<path fill-rule="evenodd" clip-rule="evenodd" fill="#C82627" d="M295.918,475.328c7.531,9.813-12.836,20.551-12,6
	c1.165,0.168,1.086,1.58,1,3c1.658,1.674,5.87,0.795,9,1C295.646,483.055,296.33,479.74,295.918,475.328z"/>
</svg>
