<?xml version="1.0" encoding="utf-8"?>
<!-- Generator: Adobe Illustrator 15.0.0, SVG Export Plug-In . SVG Version: 6.00 Build 0)  -->
<!DOCTYPE svg PUBLIC "-//W3C//DTD SVG 1.1//EN" "http://www.w3.org/Graphics/SVG/1.1/DTD/svg11.dtd">
<svg version="1.1" id="图层_1" xmlns="http://www.w3.org/2000/svg" xmlns:xlink="http://www.w3.org/1999/xlink" x="0px" y="0px"
	 width="595.28px" height="841.89px" viewBox="0 0 595.28 841.89" enable-background="new 0 0 595.28 841.89" xml:space="preserve">
<path fill-rule="evenodd" clip-rule="evenodd" d="M383.112,431.746c23.353-6.647,30.12-29.879,61-29
	c8.946,11.806,17.761,40.185-1,48c-4.624-5.278,4.941-8.651,6-16c3.301-22.924-19.147-26.227-34-15c-3.169,2.396-5.284,7.207-9,10
	c-6.354,4.777-14.967,5.627-22,10c-5.044,3.136-8.597,9.404-14,12c-15.265,7.334-40.95,5.275-63,8
	c-32.998,4.078-101.669,0.245-127-12c-8.327-4.025-14.586-12.42-20-18c8.24-30.692,60.965-55.055,106-59
	c38.13-3.34,76.295,11.847,96,33c5.088,5.462,10.753,13.065,12,21C378.239,425.952,379.669,429.856,383.112,431.746z
	 M357.112,409.746c-49.539-51.154-155.646-27.847-191,15c13.375,19.068,46.216,24.427,82,26c33.836,1.487,62.929,0.108,92-3
	c15.115-1.616,30.454-2.781,37-13C367.248,427.335,364.954,417.843,357.112,409.746z"/>
<path fill-rule="evenodd" clip-rule="evenodd" d="M432.112,425.746c-0.356,4.31-0.788,8.545-3,11c-3.986,0.319-7.389,0.055-9-2
	C419.421,427.178,426.396,423.79,432.112,425.746z"/>
<path fill-rule="evenodd" clip-rule="evenodd" d="M156.112,434.746c3.729,1.008,0.156,2.498-1,4c-2.231,9.396,0.482,20.272-2,25
	c-6.199-4.764-2.424-22.218,0-28C154.532,435.832,155.944,435.911,156.112,434.746z"/>
<path fill-rule="evenodd" clip-rule="evenodd" d="M197.112,479.746c0.81-0.19,0.997-1.003,2-1c29.781,10.788,72.153,3.901,109,5
	c2.628-2.711-5.865-6.921-2-11c7.778,1.767,12.207,11.001,18,18c8.296,10.022,14.129,21.823,30,24c6.301-25.685-19.723-32.894-21-51
	c12.106-3.667,10.772,14.482,19,18c6.581-1.086,11.164-4.17,15-8c24.991-1.675,37.089-16.245,66-14c-1.307-6.359-10.371-4.962-13-10
	c0.902-7.209,15.794-3.659,20-2c0.081,3.747,0.758,8.092-4,7c2.076,2.591,7.227,2.107,6,8c-3.603,5.937-10.783,4.125-20,5
	c-16.821,1.597-32.672,9.6-47,13c-3.649,0.649-5.326-0.674-7-2c-3.18,3.154-7.861,4.806-13,6c4.266,9.631,10.385,29.268,1,38
	c-22.952-1.381-29.647-19.02-41-32c-34.781,2.242-87.875,7.125-117-5C198.135,483.391,196.39,482.802,197.112,479.746z"/>
<path fill-rule="evenodd" clip-rule="evenodd" d="M168.112,451.746c3.689,5.046-2.978,10.385-6,15c-5.533,8.449-9.062,18.125-15,26
	c6.855,6.411,19.71,14.499,30,12c6.735-1.636,6.362-8.442,9-17c2.316-7.515,4.787-14.902,4-25c4.646-0.979,6.037,1.296,9,2
	c-4.051,18.282-6.502,38.164-19,48c-17.401-0.54-37.731-4.326-39-17c-0.851-8.501,15.706-27.084,20-34
	C163.714,457.555,163.839,452.337,168.112,451.746z"/>
</svg>
