<?xml version="1.0" encoding="utf-8"?>
<!-- Generator: Adobe Illustrator 15.0.0, SVG Export Plug-In . SVG Version: 6.00 Build 0)  -->
<!DOCTYPE svg PUBLIC "-//W3C//DTD SVG 1.1//EN" "http://www.w3.org/Graphics/SVG/1.1/DTD/svg11.dtd">
<svg version="1.1" id="图层_1" xmlns="http://www.w3.org/2000/svg" xmlns:xlink="http://www.w3.org/1999/xlink" x="0px" y="0px"
	 width="841.89px" height="595.28px" viewBox="0 0 841.89 595.28" enable-background="new 0 0 841.89 595.28" xml:space="preserve">
<circle fill="#FAEE00" cx="348.25" cy="273.167" r="1.5"/>
<circle fill="#FAEE00" cx="352.5" cy="279.75" r="1.5"/>
<circle fill="#FAEE00" cx="357" cy="287.042" r="1.5"/>
<circle fill="#FAEE00" cx="360.75" cy="294.25" r="1.5"/>
<circle fill="#FAEE00" cx="365" cy="300.625" r="1.5"/>
<circle fill="#FAEE00" cx="383.375" cy="273.167" r="1.5"/>
<circle fill="#FAEE00" cx="380.445" cy="279.75" r="1.5"/>
<circle fill="#FAEE00" cx="377.445" cy="286.417" r="1.5"/>
<circle fill="#FAEE00" cx="371.445" cy="301.25" r="1.5"/>
<circle fill="#FAEE00" cx="367.625" cy="308.359" r="1.5"/>
<circle fill="#FAEE00" cx="364.375" cy="315.5" r="1.5"/>
<circle fill="#FAEE00" cx="360.75" cy="321.859" r="1.5"/>
<circle fill="#FAEE00" cx="374.445" cy="293.625" r="1.5"/>
<circle fill="#FAEE00" cx="402" cy="308.633" r="1.5"/>
<circle fill="#FAEE00" cx="409" cy="304.8" r="1.5"/>
<circle fill="#FAEE00" cx="415.917" cy="301.466" r="1.5"/>
<circle fill="#FAEE00" cx="420.917" cy="296.217" r="1.5"/>
<circle fill="#FAEE00" cx="415.917" cy="291.05" r="1.5"/>
<circle fill="#FAEE00" cx="408.417" cy="290.633" r="1.5"/>
<circle fill="#FAEE00" cx="401.417" cy="293.633" r="1.5"/>
<circle fill="#FAEE00" cx="397.084" cy="300.717" r="1.5"/>
<circle fill="#FAEE00" cx="395.584" cy="307.8" r="1.5"/>
<circle fill="#FAEE00" cx="397.084" cy="315.383" r="1.5"/>
<circle fill="#FAEE00" cx="403.5" cy="320.492" r="1.5"/>
<circle fill="#FAEE00" cx="411.417" cy="322.367" r="1.5"/>
<circle fill="#FAEE00" cx="419.417" cy="320.867" r="1.5"/>
<circle fill="#FAEE00" cx="424.75" cy="315.383" r="1.5"/>
<circle fill="#FAEE00" cx="434.625" cy="303.3" r="1.5"/>
<circle fill="#FAEE00" cx="473.875" cy="289.55" r="1.5"/>
<circle fill="#FAEE00" cx="457.5" cy="307.133" r="1.5"/>
<circle fill="#FAEE00" cx="457.5" cy="299.217" r="1.5"/>
<circle fill="#FAEE00" cx="458.5" cy="292.55" r="1.5"/>
<circle fill="#FAEE00" cx="451" cy="289.55" r="1.5"/>
<circle fill="#FAEE00" cx="443.083" cy="291.625" r="1.5"/>
<circle fill="#FAEE00" cx="437.083" cy="296.633" r="1.5"/>
<circle fill="#FAEE00" cx="434.625" cy="311.359" r="1.5"/>
<circle fill="#FAEE00" cx="437.083" cy="318.183" r="1.5"/>
<circle fill="#FAEE00" cx="444.083" cy="322.367" r="1.5"/>
<circle fill="#FAEE00" cx="452.5" cy="320.492" r="1.5"/>
<circle fill="#FAEE00" cx="461.5" cy="322.367" r="1.5"/>
<circle fill="#FAEE00" cx="458.5" cy="315.383" r="1.5"/>
<circle fill="#FAEE00" cx="473.875" cy="298.133" r="1.5"/>
<circle fill="#FAEE00" cx="473.875" cy="306.859" r="1.5"/>
<circle fill="#FAEE00" cx="473.875" cy="315.383" r="1.5"/>
<circle fill="#FAEE00" cx="473.875" cy="322.55" r="1.5"/>
<circle fill="#FAEE00" cx="480.125" cy="294.717" r="1.5"/>
<circle fill="#FAEE00" cx="487.125" cy="291.05" r="1.5"/>
<circle fill="#FAEE00" cx="494.125" cy="290.125" r="1.5"/>
<circle fill="#FAEE00" cx="495" cy="297.717" r="1.5"/>
</svg>
